<?xml version="1.0" encoding="UTF-8"?>
<svg width="200px" height="91px" viewBox="0 0 200 91" version="1.1" xmlns="http://www.w3.org/2000/svg" xmlns:xlink="http://www.w3.org/1999/xlink">
    <!-- Generator: Sketch 59.1 (86144) - https://sketch.com -->
    <title>Artboard Copy</title>
    <desc>Created with Sketch.</desc>
    <g id="Artboard-Copy" stroke="none" stroke-width="1" fill="none" fill-rule="evenodd">
        <path d="M14.9958115,0 L-1,0 L-1,4.11305062 L4.47225131,4.11305062 L4.47225131,24.8874419 L9.52356021,24.8874419 L9.52356021,4.11305062 L14.9958115,4.11305062 L14.9958115,0 Z M17.1706806,0 L17.1706806,24.8874419 L22.2219895,24.8874419 L22.2219895,13.8379754 L28.1151832,13.8379754 L28.1151832,24.8874419 L33.1664921,24.8874419 L33.1664921,0 L28.1151832,0 L28.1151832,9.51578659 L22.2219895,9.51578659 L22.2219895,0 L17.1706806,0 Z M50.6706806,0 L36.6743455,0 L36.6743455,24.8874419 L51.021466,24.8874419 L51.021466,20.7743912 L41.7256545,20.7743912 L41.7256545,14.0819699 L50.1445026,14.0819699 L50.1445026,9.96891929 L41.7256545,9.96891929 L41.7256545,4.11305062 L50.6706806,4.11305062 L50.6706806,0 Z M11.4528796,40.2541176 L16.2937173,40.2541176 C16.2937173,37.7212094 15.6856954,35.775082 14.4696335,34.4156772 C13.2535716,33.0562723 11.2658079,32.37658 8.50628272,32.37658 C6.89266209,32.37658 5.5479984,32.6438095 4.47225131,33.1782763 C3.39650422,33.7127432 2.53124237,34.5086222 1.87643979,35.5659371 C1.22163721,36.623252 0.759774469,37.9419711 0.490837696,39.5221341 C0.221900924,41.102297 0.087434555,42.938047 0.087434555,45.0294391 C0.087434555,47.1905443 0.180976377,49.090197 0.368062827,50.7284542 C0.555149277,52.3667113 0.923470202,53.7435238 1.47303665,54.858933 C2.0226031,55.9743421 2.7826304,56.7992677 3.75314136,57.3337346 C4.72365232,57.8682015 5.98062055,58.1354309 7.52408377,58.1354309 C8.71675989,58.1354309 9.73987357,57.9321042 10.5934555,57.5254446 C11.4470374,57.118785 12.1778329,56.4274741 12.7858639,55.4514911 L12.8560209,55.4514911 L12.8560209,57.7520109 L16.5743455,57.7520109 L16.5743455,44.3323119 L8.40104712,44.3323119 L8.40104712,48.0270862 L11.7335079,48.0270862 L11.7335079,50.5716005 C11.7335079,51.2454936 11.6282733,51.8322364 11.417801,52.3318468 C11.2073288,52.8314571 10.9442424,53.2439199 10.628534,53.5692476 C10.3128256,53.8945753 9.97373654,54.1385674 9.61125654,54.3012312 C9.24877655,54.463895 8.91553381,54.5452257 8.61151832,54.5452257 C7.88655833,54.5452257 7.29607558,54.3186616 6.84005236,53.8655267 C6.38402913,53.4123917 6.0332473,52.7617461 5.78769634,51.9135705 C5.54214537,51.0653948 5.37260082,50.0371424 5.27905759,48.8287825 C5.19887768,47.7930454 5.15306111,46.6548877 5.14160698,45.4142838 L5.13874346,44.7854446 C5.13874346,41.6715941 5.40767619,39.4408093 5.94554974,38.0930233 C6.48342328,36.7452372 7.36037786,36.0713543 8.57643979,36.0713543 C9.09092753,36.0713543 9.52940482,36.204969 9.89188482,36.4722025 C10.2543648,36.7394359 10.5525294,37.0763774 10.7863874,37.4830369 C11.0202455,37.8896965 11.18979,38.3370153 11.2950262,38.8250068 C11.4002623,39.3129983 11.4528796,39.7893638 11.4528796,40.2541176 Z M30.2900524,48.3756498 L27.8696335,37.1867579 L27.7994764,37.1867579 L25.3790576,48.3756498 L30.2900524,48.3756498 Z M30.9565445,32.8645691 L37.5863874,57.7520109 L32.3246073,57.7520109 L31.1670157,52.4887004 L24.5020942,52.4887004 L23.3445026,57.7520109 L18.0827225,57.7520109 L24.7125654,32.8645691 L30.9565445,32.8645691 Z M39.4455497,32.8645691 L39.4455497,57.7520109 L44.0759162,57.7520109 L44.0759162,37.8838851 L44.1460733,37.8838851 L48.6010471,57.7520109 L52.5298429,57.7520109 L56.9848168,37.8838851 L57.0549738,37.8838851 L57.0549738,57.7520109 L61.6853403,57.7520109 L61.6853403,32.8645691 L54.2136126,32.8645691 L50.6005236,50.4321751 L50.5303665,50.4321751 L46.952356,32.8645691 L39.4455497,32.8645691 Z M65.5439791,57.7520109 L70.595288,57.7520109 L70.595288,32.8645691 L65.5439791,32.8645691 L65.5439791,57.7520109 Z M74.3486911,32.8645691 L74.3486911,57.7520109 L79.4,57.7520109 L79.4,46.946539 L87.8188482,46.946539 L87.8188482,42.8334884 L79.4,42.8334884 L79.4,36.9776197 L88.3450262,36.9776197 L88.3450262,32.8645691 L74.3486911,32.8645691 Z M90.8356021,57.7520109 L95.886911,57.7520109 L95.886911,32.8645691 L90.8356021,32.8645691 L90.8356021,57.7520109 Z M110.339267,41.2649521 L115.390576,41.2649521 C115.390576,40.3586822 115.326266,39.3885232 115.197644,38.354446 C115.069022,37.3203687 114.747472,36.3560191 114.232984,35.461368 C113.718497,34.5667169 112.94093,33.8289313 111.900262,33.2479891 C110.859593,32.6670468 109.438927,32.37658 107.63822,32.37658 C105.74397,32.37658 104.235608,32.6960935 103.113089,33.33513 C101.99057,33.9741664 101.131155,34.8629948 100.534817,36.0016416 C99.9384787,37.1402884 99.5526187,38.5054822 99.3772251,40.097264 C99.2018316,41.6890458 99.1141361,43.4260371 99.1141361,45.30829 C99.1141361,47.2137806 99.2018316,48.9565812 99.3772251,50.5367442 C99.5526187,52.1169071 99.9384787,53.4762916 100.534817,54.6149384 C101.131155,55.7535853 101.99057,56.6249856 103.113089,57.2291655 C104.235608,57.8333455 105.74397,58.1354309 107.63822,58.1354309 C109.298612,58.1354309 110.649122,57.8798202 111.689791,57.368591 C112.730459,56.8573618 113.537257,56.1486229 114.110209,55.2423529 C114.683162,54.336083 115.074868,53.278784 115.28534,52.0704241 C115.495813,50.8620642 115.601047,49.5840104 115.601047,48.2362244 L110.549738,48.2362244 C110.549738,49.5840104 110.467889,50.6703561 110.304188,51.4952941 C110.140488,52.3202321 109.918326,52.959259 109.637696,53.412394 C109.357067,53.8655289 109.023824,54.1676144 108.637958,54.3186594 C108.252092,54.4697044 107.837,54.5452257 107.39267,54.5452257 C106.854797,54.5452257 106.381241,54.4348483 105.97199,54.2140903 C105.562738,53.9933322 105.223649,53.5634414 104.954712,52.9244049 C104.685775,52.2853684 104.486999,51.3849215 104.358377,50.2230369 C104.240474,49.1579761 104.17661,47.7902797 104.166785,46.1199126 L104.165445,45.6568536 C104.165445,43.8907892 104.212216,42.39779 104.305759,41.1778112 C104.399302,39.9578325 104.563001,38.9702455 104.796859,38.2150205 C105.030717,37.4597956 105.352267,36.9137181 105.761518,36.5767715 C106.17077,36.239825 106.691096,36.0713543 107.322513,36.0713543 C108.468418,36.0713543 109.257677,36.4838171 109.690314,37.3087551 C110.122952,38.1336931 110.339267,39.4524123 110.339267,41.2649521 Z M128.93089,48.3756498 L126.510471,37.1867579 L126.440314,37.1867579 L124.019895,48.3756498 L128.93089,48.3756498 Z M129.597382,32.8645691 L136.227225,57.7520109 L130.965445,57.7520109 L129.807853,52.4887004 L123.142932,52.4887004 L121.98534,57.7520109 L116.72356,57.7520109 L123.353403,32.8645691 L129.597382,32.8645691 Z M152.643979,32.8645691 L136.648168,32.8645691 L136.648168,36.9776197 L142.120419,36.9776197 L142.120419,57.7520109 L147.171728,57.7520109 L147.171728,36.9776197 L152.643979,36.9776197 L152.643979,32.8645691 Z M155.064398,57.7520109 L160.115707,57.7520109 L160.115707,32.8645691 L155.064398,32.8645691 L155.064398,57.7520109 Z M168.394241,45.30829 L168.399152,44.3350978 C168.412248,43.0784089 168.451535,41.9853216 168.517016,41.055814 C168.598866,39.8939294 168.762564,38.9411984 169.008115,38.1975923 C169.253666,37.4539863 169.604448,36.9137181 170.060471,36.5767715 C170.516494,36.239825 171.11867,36.0713543 171.867016,36.0713543 C172.615362,36.0713543 173.217537,36.239825 173.67356,36.5767715 C174.129583,36.9137181 174.480365,37.4539863 174.725916,38.1975923 C174.971467,38.9411984 175.135165,39.8939294 175.217016,41.055814 C175.298866,42.2176985 175.339791,43.6351763 175.339791,45.30829 L175.33488,46.2821794 C175.321784,47.5407272 175.282496,48.6393916 175.217016,49.5781943 C175.135165,50.7516976 174.971467,51.7044286 174.725916,52.4364159 C174.480365,53.1684031 174.129583,53.702862 173.67356,54.0398085 C173.217537,54.376755 172.615362,54.5452257 171.867016,54.5452257 C171.11867,54.5452257 170.516494,54.376755 170.060471,54.0398085 C169.604448,53.702862 169.253666,53.1684031 169.008115,52.4364159 C168.762564,51.7044286 168.598866,50.7516976 168.517016,49.5781943 C168.435165,48.4046909 168.394241,46.9814037 168.394241,45.30829 Z M163.342932,45.30829 C163.342932,47.2137806 163.430627,48.9565812 163.606021,50.5367442 C163.781414,52.1169071 164.167275,53.4762916 164.763613,54.6149384 C165.359951,55.7535853 166.219366,56.6249856 167.341885,57.2291655 C168.464404,57.8333455 169.972765,58.1354309 171.867016,58.1354309 C173.761266,58.1354309 175.269628,57.8333455 176.392147,57.2291655 C177.514665,56.6249856 178.374081,55.7535853 178.970419,54.6149384 C179.566757,53.4762916 179.952617,52.1169071 180.12801,50.5367442 C180.303404,48.9565812 180.391099,47.2137806 180.391099,45.30829 C180.391099,43.4260371 180.303404,41.6890458 180.12801,40.097264 C179.952617,38.5054822 179.566757,37.1402884 178.970419,36.0016416 C178.374081,34.8629948 177.514665,33.9741664 176.392147,33.33513 C175.269628,32.6960935 173.761266,32.37658 171.867016,32.37658 C169.972765,32.37658 168.464404,32.6960935 167.341885,33.33513 C166.219366,33.9741664 165.359951,34.8629948 164.763613,36.0016416 C164.167275,37.1402884 163.781414,38.5054822 163.606021,40.097264 C163.430627,41.6890458 163.342932,43.4260371 163.342932,45.30829 Z M189.195812,32.8645691 L183.372775,32.8645691 L183.372775,57.7520109 L188.003141,57.7520109 L188.003141,40.3238304 L188.073298,40.3238304 L194.24712,57.7520109 L200,57.7520109 L200,32.8645691 L195.369634,32.8645691 L195.369634,49.9093297 L195.299476,49.9093297 L189.195812,32.8645691 Z M5.38429319,76.9877428 L5.38429319,69.4239124 L7.48900524,69.4239124 C8.75183877,69.4239124 9.65217881,69.7492352 10.1900524,70.3998906 C10.7279259,71.0505459 10.9968586,72.0032769 10.9968586,73.2581122 C10.9968586,74.5361851 10.6870014,75.4772975 10.0672775,76.0814774 C9.44755362,76.6856574 8.63490904,76.9877428 7.62931937,76.9877428 L5.38429319,76.9877428 Z M0.332984293,65.7291382 L0.332984293,90.61658 L5.38429319,90.61658 L5.38429319,80.6825171 L8.08534031,80.6825171 C9.27801643,80.6825171 10.3654401,80.5314744 11.347644,80.2293844 C12.3298478,79.9272944 13.1658779,79.4741663 13.8557592,78.8699863 C14.5456404,78.2658064 15.0835059,77.4873554 15.4693717,76.5346101 C15.8552375,75.5818648 16.0481675,74.4664724 16.0481675,73.1883995 C16.0481675,72.2588918 15.9312403,71.3468262 15.6973822,70.4521751 C15.4635241,69.557524 15.0776641,68.7616451 14.5397906,68.0645144 C14.001917,67.3673837 13.294507,66.8038781 12.4175393,66.3739808 C11.5405715,65.9440836 10.4589942,65.7291382 9.17277487,65.7291382 L0.332984293,65.7291382 Z M18.5387435,65.7291382 L18.5387435,90.61658 L23.5900524,90.61658 L23.5900524,80.089959 L26.2910995,80.089959 C27.3434608,80.089959 28.0917953,80.3688071 28.5361257,80.9265116 C28.980456,81.4842162 29.2260033,82.2510485 29.2727749,83.2270315 L29.413089,88.0023529 C29.4364748,88.4903444 29.4832457,88.9609006 29.5534031,89.4140356 C29.6235606,89.8671705 29.7872587,90.2680147 30.0445026,90.61658 L35.5167539,90.61658 L35.5167539,90.4074419 C35.0490378,90.1518273 34.7450269,89.6754618 34.604712,88.9783311 C34.5281767,88.4079514 34.467297,87.6275784 34.4220718,86.6371956 L34.3240838,84.1158687 L34.3240838,84.1158687 C34.300698,83.569783 34.2656198,83.0643708 34.2188482,82.599617 C34.0785333,81.2053555 33.7160588,80.1945312 33.1314136,79.5671135 C32.5467685,78.9396959 31.623043,78.5330424 30.3602094,78.3471409 L30.3602094,78.2774282 C31.7867436,77.9753382 32.8390891,77.295646 33.5172775,76.2383311 C34.1954659,75.1810161 34.534555,73.8158223 34.534555,72.1427086 C34.534555,69.9816034 33.9499186,68.3724175 32.7806283,67.3151026 C31.611338,66.2577877 29.9743561,65.7291382 27.8696335,65.7291382 L18.5387435,65.7291382 Z M23.5900524,76.6043228 L23.5900524,69.4239124 L25.9753927,69.4239124 C28.3139733,69.4239124 29.4832461,70.5741609 29.4832461,72.8746922 C29.4832461,74.2224782 29.1558497,75.1810186 28.5010471,75.750342 C27.8462445,76.3196654 26.9108263,76.6043228 25.6947644,76.6043228 L23.5900524,76.6043228 Z M42.5675393,78.1728591 L42.5724502,77.1996668 C42.5855461,75.942978 42.6248339,74.8498906 42.6903141,73.920383 C42.7721645,72.7584985 42.9358626,71.8057675 43.1814136,71.0621614 C43.4269646,70.3185553 43.7777464,69.7782871 44.2337696,69.4413406 C44.6897929,69.1043941 45.2919683,68.9359234 46.0403141,68.9359234 C46.7886599,68.9359234 47.3908354,69.1043941 47.8468586,69.4413406 C48.3028819,69.7782871 48.6536637,70.3185553 48.8992147,71.0621614 C49.1447656,71.8057675 49.3084638,72.7584985 49.3903141,73.920383 C49.4721645,75.0822676 49.513089,76.4997454 49.513089,78.1728591 L49.508178,79.1467485 C49.4950822,80.4052963 49.4557944,81.5039607 49.3903141,82.4427633 C49.3084638,83.6162667 49.1447656,84.5689977 48.8992147,85.300985 C48.6536637,86.0329722 48.3028819,86.5674311 47.8468586,86.9043776 C47.3908354,87.2413241 46.7886599,87.4097948 46.0403141,87.4097948 C45.2919683,87.4097948 44.6897929,87.2413241 44.2337696,86.9043776 C43.7777464,86.5674311 43.4269646,86.0329722 43.1814136,85.300985 C42.9358626,84.5689977 42.7721645,83.6162667 42.6903141,82.4427633 C42.6084638,81.26926 42.5675393,79.8459728 42.5675393,78.1728591 Z M37.5162304,78.1728591 C37.5162304,80.0783497 37.6039258,81.8211503 37.7793194,83.4013133 C37.9547129,84.9814762 38.3405729,86.3408607 38.936911,87.4795075 C39.5332491,88.6181543 40.3926645,89.4895547 41.5151832,90.0937346 C42.6377019,90.6979146 44.1460638,91 46.0403141,91 C47.9345644,91 49.4429263,90.6979146 50.565445,90.0937346 C51.6879637,89.4895547 52.5473792,88.6181543 53.1437173,87.4795075 C53.7400553,86.3408607 54.1259154,84.9814762 54.3013089,83.4013133 C54.4767024,81.8211503 54.5643979,80.0783497 54.5643979,78.1728591 C54.5643979,76.2906062 54.4767024,74.5536149 54.3013089,72.9618331 C54.1259154,71.3700513 53.7400553,70.0048575 53.1437173,68.8662107 C52.5473792,67.7275638 51.6879637,66.8387355 50.565445,66.199699 C49.4429263,65.5606626 47.9345644,65.2411491 46.0403141,65.2411491 C44.1460638,65.2411491 42.6377019,65.5606626 41.5151832,66.199699 C40.3926645,66.8387355 39.5332491,67.7275638 38.936911,68.8662107 C38.3405729,70.0048575 37.9547129,71.3700513 37.7793194,72.9618331 C37.6039258,74.5536149 37.5162304,76.2906062 37.5162304,78.1728591 Z M70.4900524,65.7291382 L65.4387435,65.7291382 L65.4387435,83.5058824 C65.4387435,84.8304307 65.2925844,85.8122084 65.0002618,86.4512449 C64.7079392,87.0902814 64.1057637,87.4097948 63.1937173,87.4097948 C62.2816708,87.4097948 61.6794954,87.0902814 61.3871728,86.4512449 C61.0948502,85.8122084 60.9486911,84.8304307 60.9486911,83.5058824 L60.9486911,82.7390424 L56.3183246,82.7390424 L56.3183246,83.8195896 C56.3183246,84.7955726 56.4118664,85.7250663 56.5989529,86.6080985 C56.7860393,87.4911307 57.1309748,88.2637723 57.6337696,88.9260465 C58.1365645,89.5883207 58.8147427,90.0995422 59.6683246,90.4597264 C60.5219065,90.8199106 61.6151766,91 62.9481675,91 C65.4972204,91 67.3914423,90.4364945 68.6308901,89.3094665 C69.8703378,88.1824385 70.4900524,86.2944045 70.4900524,83.6453078 L70.4900524,65.7291382 Z M87.7837696,65.7291382 L73.7874346,65.7291382 L73.7874346,90.61658 L88.134555,90.61658 L88.134555,86.5035294 L78.8387435,86.5035294 L78.8387435,79.8111081 L87.2575916,79.8111081 L87.2575916,75.6980575 L78.8387435,75.6980575 L78.8387435,69.8421888 L87.7837696,69.8421888 L87.7837696,65.7291382 Z M101.359162,74.1295212 L106.410471,74.1295212 C106.410471,73.2232513 106.346161,72.2530923 106.217539,71.219015 C106.088917,70.1849378 105.767367,69.2205881 105.25288,68.3259371 C104.738392,67.431286 103.960825,66.6935004 102.920157,66.1125581 C101.879489,65.5316159 100.458822,65.2411491 98.6581152,65.2411491 C96.7638649,65.2411491 95.255503,65.5606626 94.1329843,66.199699 C93.0104656,66.8387355 92.1510501,67.7275638 91.554712,68.8662107 C90.958374,70.0048575 90.572514,71.3700513 90.3971204,72.9618331 C90.2217269,74.5536149 90.1340314,76.2906062 90.1340314,78.1728591 C90.1340314,80.0783497 90.2217269,81.8211503 90.3971204,83.4013133 C90.572514,84.9814762 90.958374,86.3408607 91.554712,87.4795075 C92.1510501,88.6181543 93.0104656,89.4895547 94.1329843,90.0937346 C95.255503,90.6979146 96.7638649,91 98.6581152,91 C100.318507,91 101.669017,90.7443892 102.709686,90.2331601 C103.750354,89.7219309 104.557152,89.0131919 105.130105,88.106922 C105.703057,87.2006521 106.094763,86.1433531 106.305236,84.9349932 C106.515708,83.7266333 106.620942,82.4485795 106.620942,81.1007934 L101.569634,81.1007934 C101.569634,82.4485795 101.487784,83.5349252 101.324084,84.3598632 C101.160383,85.1848012 100.938221,85.8238281 100.657592,86.2769631 C100.376962,86.730098 100.043719,87.0321835 99.6578534,87.1832285 C99.2719876,87.3342734 98.8568958,87.4097948 98.4125654,87.4097948 C97.8746919,87.4097948 97.4011364,87.2994174 96.9918848,87.0786594 C96.5826332,86.8579013 96.2435441,86.4280105 95.9746073,85.788974 C95.7056706,85.1499375 95.5068942,84.2494905 95.3782723,83.087606 C95.2603688,82.0225452 95.1965053,80.6548488 95.1866801,78.9844817 L95.1853403,78.5214227 C95.1853403,76.7553582 95.2321112,75.262359 95.3256545,74.0423803 C95.4191977,72.8224016 95.5828959,71.8348145 95.8167539,71.0795896 C96.050612,70.3243647 96.372162,69.7782871 96.7814136,69.4413406 C97.1906652,69.1043941 97.7109916,68.9359234 98.3424084,68.9359234 C99.4883129,68.9359234 100.277572,69.3483862 100.710209,70.1733242 C101.142847,70.9982622 101.359162,72.3169814 101.359162,74.1295212 Z M124.160209,65.7291382 L108.164398,65.7291382 L108.164398,69.8421888 L113.636649,69.8421888 L113.636649,90.61658 L118.687958,90.61658 L118.687958,69.8421888 L124.160209,69.8421888 L124.160209,65.7291382 Z M131.105759,85.1789877 L131.105759,90.61658 L126.475393,90.61658 L126.475393,85.1789877 L131.105759,85.1789877 Z" id="THEGAMIFICATIONPROJECT." fill="#FFFFFF" fill-rule="nonzero"></path>
    </g>
</svg>